<svg xmlns="http://www.w3.org/2000/svg" viewBox="0 0 128 128" role="img" aria-label="NU shield logo">
  <defs>
    <style>
      .base { fill: #4e2a84; }
      .inner { fill: #ffffff; }
    </style>
  </defs>
  <path class="base" d="M16 12a4 4 0 0 1 4-4h88a4 4 0 0 1 4 4v60c0 28.3-19.3 53.8-48 62-28.7-8.2-48-33.7-48-62z"/>
  <path class="inner" d="M30 24a4 4 0 0 1 4-4h60a4 4 0 0 1 4 4v46c0 18.4-12 36.5-34 44-22-7.5-34-25.6-34-44z"/>
  <path class="base" d="M36 68l28 18 28-18v18l-28 20-28-20z"/>
  <text x="64" y="60" text-anchor="middle" class="base" font-family="Georgia, 'Times New Roman', serif" font-size="44" font-weight="700">
    NU
  </text>
</svg>
